<?xml version="1.0" standalone="no"?>
<!DOCTYPE svg PUBLIC "-//W3C//DTD SVG 20010904//EN"
 "http://www.w3.org/TR/2001/REC-SVG-20010904/DTD/svg10.dtd">
<svg version="1.0" xmlns="http://www.w3.org/2000/svg"
 width="512.000000pt" height="512.000000pt" viewBox="0 0 512.000000 512.000000"
 preserveAspectRatio="xMidYMid meet">
<metadata>
Created by potrace 1.14, written by Peter Selinger 2001-2017
</metadata>
<g transform="translate(0.000000,512.000000) scale(0.100000,-0.100000)"
fill="#000000" stroke="none">
<path d="M2590 4920 c-706 -86 -1357 -496 -1867 -1177 -582 -779 -765 -1704
-440 -2236 102 -168 313 -409 474 -539 513 -418 1199 -701 1888 -779 150 -17
458 -14 605 5 422 56 757 209 1023 465 377 364 606 818 667 1321 15 126 12
421 -5 557 -43 322 -125 590 -281 911 -157 326 -335 589 -564 837 -145 158
-259 255 -482 411 -140 99 -329 176 -513 209 -106 19 -396 28 -505 15z m498
-149 c51 -11 116 -27 145 -36 104 -34 252 -114 340 -185 48 -38 91 -69 96 -67
5 1 45 -29 90 -66 85 -71 109 -107 158 -237 47 -123 64 -224 70 -410 10 -333
-56 -622 -223 -970 -145 -301 -327 -554 -578 -806 -502 -500 -1132 -834 -1709
-905 -153 -18 -407 -7 -532 25 -104 26 -205 64 -266 102 -38 23 -121 111 -141
149 -7 13 -41 58 -76 100 -93 114 -155 245 -188 400 -143 665 259 1612 963
2267 392 364 874 600 1343 658 120 14 400 4 508 -19z"/>
<path d="M2605 4743 c-702 -109 -1405 -591 -1856 -1271 -261 -394 -400 -781
-416 -1162 -23 -546 234 -941 699 -1074 132 -38 243 -50 408 -43 903 38 1932
875 2288 1862 177 491 158 949 -53 1276 -93 143 -259 278 -419 340 -161 62
-214 71 -426 74 -107 2 -208 1 -225 -2z m-1079 -584 c1 -5 2 -16 3 -25 1 -10
7 -13 20 -9 23 7 24 5 141 -214 l92 -175 -20 -42 c-16 -32 -19 -50 -13 -72 l9
-29 -38 25 c-33 21 -57 59 -165 262 -74 140 -123 243 -120 253 8 20 38 27 61
14 17 -9 18 -9 5 6 -12 15 -12 17 4 11 14 -6 16 -4 10 7 -5 8 -5 11 1 6 5 -5
10 -13 10 -18z m24 -14 c0 -8 -2 -15 -4 -15 -2 0 -6 7 -10 15 -3 8 -1 15 4 15
6 0 10 -7 10 -15z m215 3 c-4 -10 9 -13 45 -12 56 1 52 6 84 -122 l16 -61 -44
-67 -44 -67 -11 33 c-6 18 -26 92 -45 165 -30 118 -32 132 -18 136 10 3 18 5
19 6 1 0 0 -5 -2 -11z m235 -43 c0 -8 -4 -15 -10 -15 -5 0 -10 7 -10 15 0 8 5
15 10 15 6 0 10 -7 10 -15z m-539 -300 c145 -164 175 -203 186 -243 6 -26 12
-50 13 -54 0 -3 16 -27 35 -53 l35 -46 -28 15 c-26 13 -31 13 -46 -2 -20 -20
-18 -22 -299 291 l-177 198 48 44 c26 25 50 45 54 45 3 0 84 -88 179 -195z
m1113 125 c64 -22 128 -54 183 -91 l42 -29 52 55 c28 30 57 55 63 55 6 0 47
-36 90 -79 l79 -79 -52 -60 -52 -60 45 -64 c68 -97 97 -184 98 -290 0 -70 -5
-97 -24 -138 l-23 -52 -72 -1 c-59 -2 -75 -6 -87 -22 -33 -43 -16 -66 58 -79
l39 -7 -54 -55 c-29 -30 -59 -54 -65 -54 -7 0 -23 12 -36 28 -12 15 -52 54
-88 87 -36 32 -107 98 -159 147 l-93 88 69 73 c116 125 130 181 54 219 -31 15
-38 15 -70 2 -68 -27 -151 -140 -151 -206 0 -37 26 -150 94 -412 25 -99 46
-192 46 -208 0 -16 3 -27 8 -25 4 3 8 -6 8 -19 1 -13 -2 -24 -7 -24 -5 0 -9
-15 -9 -33 0 -19 -7 -56 -15 -82 -11 -38 -12 -52 -2 -63 6 -8 -4 -5 -23 7 -19
11 -43 21 -52 21 -25 0 -33 -45 -19 -99 14 -53 10 -61 -98 -174 -61 -64 -115
-104 -134 -99 -15 4 -47 -19 -47 -33 0 -34 -135 -75 -249 -75 -103 0 -179 21
-288 80 l-76 41 -67 -66 -66 -65 -32 27 c-18 16 -36 42 -41 58 -5 21 -14 31
-32 33 -13 2 -34 13 -47 25 l-22 21 43 45 c23 25 53 58 65 72 l23 27 -34 48
c-50 71 -76 126 -98 211 -33 133 -22 222 47 353 44 84 153 215 181 216 34 2
45 15 41 45 -4 26 6 19 96 -68 56 -54 140 -135 189 -181 48 -45 87 -85 87 -88
0 -3 -42 -51 -93 -107 -166 -182 -181 -214 -128 -268 33 -33 58 -36 107 -13
38 18 151 143 192 213 37 64 34 136 -17 337 -75 298 -81 364 -44 508 12 48 44
128 58 144 2 2 12 -2 23 -9 33 -21 52 3 52 65 1 58 13 76 95 143 62 50 82 61
170 90 58 19 82 22 144 17 40 -3 97 -14 125 -24z m-1257 -336 c250 -170 308
-214 288 -214 -6 0 -46 -7 -90 -15 l-80 -14 -232 156 -232 156 42 53 c23 30
43 54 44 54 1 0 118 -79 260 -176z m-162 -194 c225 -84 286 -114 206 -103 -51
7 -75 -10 -66 -46 4 -14 3 -23 -1 -19 -4 4 -13 3 -19 -2 -14 -12 -345 108
-371 135 -8 8 -11 15 -6 15 5 0 9 8 8 18 0 9 4 16 11 15 9 -2 10 4 3 21 -5 13
-6 27 -3 30 3 3 -2 8 -11 12 -9 3 -16 10 -16 15 0 5 10 4 23 -1 12 -5 121 -46
242 -90z m-268 55 c0 -8 -4 -12 -9 -9 -5 3 -6 10 -3 15 9 13 12 11 12 -6z
m170 -274 c68 -10 126 -21 130 -24 15 -15 -30 -45 -77 -51 -35 -5 -53 -13 -60
-26 -7 -14 -18 -19 -33 -16 -12 3 -38 7 -57 10 -31 5 -36 10 -37 34 -1 15 -4
42 -8 60 -7 38 -18 37 142 13z m-87 -230 c0 -6 -4 -13 -10 -16 -5 -3 -10 1
-10 9 0 9 5 16 10 16 6 0 10 -4 10 -9z m2369 -107 c9 -9 11 -14 4 -10 -17 9
-21 -27 -4 -40 8 -6 15 -22 17 -36 2 -20 -2 -24 -19 -22 -12 2 -60 8 -107 14
-131 17 -130 16 -80 61 23 21 46 39 51 39 5 0 9 5 9 11 0 18 110 4 129 -17z
m-594 -54 c10 -11 16 -20 13 -20 -3 0 -13 9 -23 20 -10 11 -16 20 -13 20 3 0
13 -9 23 -20z m211 -81 c21 -1 130 -36 241 -77 171 -63 202 -78 207 -97 7 -27
-2 -57 -15 -49 -5 3 -7 -1 -4 -8 2 -7 -2 -21 -9 -30 -12 -17 -33 -11 -291 87
-153 58 -279 105 -282 105 -2 0 -2 4 2 9 7 13 64 41 82 41 7 0 13 7 13 16 0 8
4 13 8 10 5 -3 26 -6 48 -7z m-323 -16 c-7 -2 -21 -2 -30 0 -10 3 -4 5 12 5
17 0 24 -2 18 -5z m389 -257 l237 -159 -37 -48 c-20 -26 -42 -50 -48 -53 -6
-2 -107 62 -224 142 -211 146 -260 192 -205 192 35 0 46 28 29 69 -10 25 -11
31 -2 24 7 -5 120 -80 250 -167z m-402 139 c13 -14 21 -25 18 -25 -2 0 -15 11
-28 25 -13 14 -21 25 -18 25 2 0 15 -11 28 -25z m257 -358 c81 -89 151 -163
155 -165 18 -8 5 -30 -40 -75 l-48 -47 -146 167 -146 167 19 35 c10 20 23 49
28 64 6 16 15 25 21 22 5 -3 76 -79 157 -168z m-173 -216 c53 -99 96 -184 96
-190 0 -14 -55 -42 -65 -33 -5 4 -5 2 -1 -5 4 -7 -2 -16 -12 -22 -27 -14 -48
12 -110 134 -28 55 -61 118 -73 141 l-23 41 40 56 c21 31 42 57 45 57 3 0 49
-81 103 -179z m-232 -120 l26 -99 -22 -10 c-27 -12 -60 -9 -79 6 -7 7 -16 9
-19 7 -3 -3 -13 22 -22 55 -15 53 -15 62 -2 75 8 8 18 15 23 15 5 0 20 11 33
24 14 14 27 25 31 25 3 1 17 -44 31 -98z"/>
</g>
</svg>
